<?xml version="1.0" encoding="UTF-8" standalone="no"?> <!-- Created with Vectornator for iOS (http://vectornator.io/) --><!DOCTYPE svg PUBLIC "-//W3C//DTD SVG 1.1//EN" "http://www.w3.org/Graphics/SVG/1.1/DTD/svg11.dtd">
<svg height="100%" style="fill-rule:evenodd;clip-rule:evenodd;stroke-linecap:round;stroke-linejoin:round;" xmlns:xlink="http://www.w3.org/1999/xlink" xmlns="http://www.w3.org/2000/svg" xml:space="preserve" width="100%" xmlns:vectornator="http://vectornator.io" version="1.1" viewBox="0 0 1024 830">
<metadata>
<vectornator:setting key="IsolateActiveLayer" value="0"/>
<vectornator:setting key="SnapToPoints" value="1"/>
<vectornator:setting key="OutlineMode" value="0"/>
<vectornator:setting key="RulersVisible" value="1"/>
<vectornator:setting key="CMYKEnabledKey" value="0"/>
<vectornator:setting key="SnapToEdges" value="1"/>
<vectornator:setting key="DisplayWhiteBackground" value="0"/>
<vectornator:setting key="SnapToGuides" value="1"/>
<vectornator:setting key="GridSpacing" value="36"/>
<vectornator:setting key="Units" value="Pixels"/>
<vectornator:setting key="DynamicGuides" value="1"/>
<vectornator:setting key="SnapToGrid" value="1"/>
</metadata>
<defs>
<linearGradient y1="442.602" id="LinearGradient" x1="90.0633" y2="442.602" x2="973.143" gradientUnits="userSpaceOnUse" gradientTransform="matrix(1.14628 0 0 1.14628 -103.238 -115.708)">
<stop stop-color="#fdc830" offset="0"/>
<stop stop-color="#f37335" offset="1"/>
</linearGradient>
</defs>
<g id="Layer 2" vectornator:layerName="Layer 2">
<path stroke="#ffffff" stroke-width="1" d="M105.388+477.909C105.388+477.909+419.063+362.774+492.496+252.172C565.928+141.57+633.921+101.681+698.288+71.764C762.655+41.847+891.502+34.8439+930.371+58.1653C975.7+85.3626+1092.65+178.74+972.98+248.546C853.312+318.352+827.928+373.653+801.637+435.3C775.347+496.947+748.15+607.549+742.71+663.757C737.271+719.964+673.811+796.117+619.416+814.248C565.022+832.38+281.264+843.259+218.71+768.919C156.157+694.58+188.793+693.674+99.0425+668.29C9.29163+642.906-4.30698+593.951+31.0494+542.276C66.4058+490.601+105.388+477.909+105.388+477.909Z" fill="#ffffff" stroke-linecap="butt" opacity="1" stroke-linejoin="round"/>
<path stroke="#fdc830" stroke-width="1" d="M265.445+294.89C264.867+294.89+263.422+295.392+263.71+294.89C266.179+290.568+268.705+286.088+272.388+282.74C275.26+280.129+278.937+277.884+282.802+277.533C285.905+277.251+288.868+279.306+291.48+281.004C297.525+284.933+301.988+294.194+310.572+292.286C315.374+291.219+329.286+275.382+333.136+276.665C334.363+277.074+334.293+278.979+334.872+280.136" fill="#fdc830" stroke-linecap="butt" opacity="1" stroke-linejoin="round"/>
<path stroke="#fdc830" stroke-width="1" d="M265.445+256.705C266.313+256.416+267.136+255.905+268.049+255.837C282.787+254.745+297.698+251.005+312.308+253.234C316.432+253.863+316.072+260.946+319.251+263.648C322.116+266.083+326.075+266.865+329.665+267.987C336.748+270.2+347.597+256.229+354.832+254.101C366.494+250.672+374.044+265.766+384.338+268.855C386.572+269.525+389.303+270.958+391.281+269.722C397.765+265.67+399.877+257.614+406.902+254.101" fill="#fdc830" stroke-linecap="butt" opacity="1" stroke-linejoin="round"/>
</g>
<g id="Layer 2 copy" vectornator:layerName="Layer 2 copy">
<path stroke="#fdc830" stroke-width="1" d="M92.371+433.65C92.371+433.65+406.046+318.515+479.478+207.913C552.911+97.3107+620.904+57.4215+685.271+27.5045C749.637-2.41243+878.484-9.41552+917.354+13.9059C962.682+41.1031+1079.63+134.48+959.963+204.286C840.295+274.093+814.911+329.394+788.62+391.041C762.329+452.688+735.132+563.29+729.693+619.497C724.253+675.705+660.793+751.857+606.399+769.989C552.004+788.12+268.246+798.999+205.693+724.66C143.139+650.321+175.776+649.414+86.025+624.03C-3.72585+598.646-17.3245+549.691+18.0319+498.017C53.3883+446.342+92.371+433.65+92.371+433.65Z" fill="url(#LinearGradient)" stroke-linecap="butt" opacity="1" stroke-linejoin="round"/>
<path stroke="#fdc830" stroke-width="1" d="M265.445+294.89C264.867+294.89+263.422+295.392+263.71+294.89C266.179+290.568+268.705+286.088+272.388+282.74C275.26+280.129+278.937+277.884+282.802+277.533C285.905+277.251+288.868+279.306+291.48+281.004C297.525+284.933+301.988+294.194+310.572+292.286C315.374+291.219+329.286+275.382+333.136+276.665C334.363+277.074+334.293+278.979+334.872+280.136" fill="#fdc830" stroke-linecap="butt" opacity="1" stroke-linejoin="round"/>
<path stroke="#fdc830" stroke-width="1" d="M265.445+256.705C266.313+256.416+267.136+255.905+268.049+255.837C282.787+254.745+297.698+251.005+312.308+253.234C316.432+253.863+316.072+260.946+319.251+263.648C322.116+266.083+326.075+266.865+329.665+267.987C336.748+270.2+347.597+256.229+354.832+254.101C366.494+250.672+374.044+265.766+384.338+268.855C386.572+269.525+389.303+270.958+391.281+269.722C397.765+265.67+399.877+257.614+406.902+254.101" fill="#fdc830" stroke-linecap="butt" opacity="1" stroke-linejoin="round"/>
</g>
<g id="Layer 1" vectornator:layerName="Layer 1">
<path stroke="#333333" vectornator:shadowColor="#555555" vectornator:shadowOffset="10" stroke-width="0.1" fill="#ffffff" stroke-linecap="butt" vectornator:shadowAngle="1.5708" stroke-linejoin="round" opacity="1" vectornator:shadowRadius="10" d="M223.73+159.633L566.171+159.633C569.337+159.633+571.903+162.199+571.903+165.365L571.903+623.917C571.903+627.082+569.337+629.648+566.171+629.648L223.73+629.648C220.565+629.648+217.999+627.082+217.999+623.917L217.999+165.365C217.999+162.199+220.565+159.633+223.73+159.633Z" vectornator:shadowOpacity="0.383226"/>
</g>
<g id="Layer 3" vectornator:layerName="Layer 3">
<path stroke="#fdc830" stroke-width="1" d="M269.509+234.616C279.772+231.547+285.897+237.407+295.661+238.826C305.415+240.244+318.12+234.591+328.81+234.692C333.943+234.741+337.788+239.161+342.54+239.752C351.392+240.852+358.898+234.88+367.384+236.182C371.847+236.866+375.708+240.663+380.038+241.149C385.092+241.717+389.258+239.283+393.907+238.32C394.693+238.157+432.354+241.458+432.969+241.801L434.337+243.169C432.504+248.644+399.999+240.793+395.261+241.704C389.392+242.833+384.881+246.1+378.469+244.81C374.593+244.03+371.314+240.605+367.384+239.886C361.488+238.807+357.229+242.684+351.559+243.488C342.581+244.761+337.377+240.088+329.304+238.389C317.605+235.928+306.997+242.44+295.884+242.222C286.831+242.044+280.983+234.696+271.399+236.506" fill="#fdc830" stroke-linecap="butt" opacity="1" stroke-linejoin="round"/>
<path stroke="#fdc830" stroke-width="1" d="M274.651+314.686C282.068+315.041+286.613+318.807+293.391+320.019C300.276+321.249+307.161+314.936+313.994+314.769C325.843+314.478+334.312+315.007+344.739+317.36C349.258+318.38+356.263+314.268+361.246+315.351C365.007+316.168+368.155+318.475+372.037+318.881C379.38+319.649+385.72+315.914+392.852+315.764C397.448+315.668+402.211+318.806+407.128+318.952C410.007+319.038+412.017+316.588+415.008+316.915C419.019+317.354+425.271+321.998+428.955+320.969C433.788+319.619+438.218+312.618+443.664+313.642C447.253+314.317+452.355+320.255+456.426+318.367C458.844+317.244+464.761+312.234+468.198+313.855C474.106+316.642+472.421+320.676+478.382+317.415C488.351+311.962+493.08+317.509+503.125+316.977C506.466+316.799+516.022+317.54+515.759+317.904L517.176+319.32C514.133+326.907+490.984+315.392+485.562+317.334C482.354+318.483+480.254+321.597+477.224+322.686C474.071+323.819+469.591+320.213+467.998+318.075C465.474+314.689+460.159+321.996+455.04+322.06C450.98+322.111+444.362+315.791+441.306+317.321C436.888+319.533+432.283+326.041+426.717+324.768C422.678+323.844+418.45+320.003+414.22+320.132C408.808+320.296+405.046+322.497+399.171+321.857C395.743+321.484+394.364+318.45+390.813+319.015C384.213+320.066+378.289+323.083+371.284+322.267C367.479+321.824+364.949+320.036+361.669+318.734C357.288+316.994+349.899+321.049+344.975+320.739C340.842+320.478+334.828+316.418+331.539+317.639C326.302+319.584+320.128+317.914+314.738+317.746C307.094+317.508+300.14+324.427+292.173+322.699C286.287+321.423+281.952+317.84+275.594+317.044" fill="#fdc830" stroke-linecap="butt" opacity="1" stroke-linejoin="round"/>
<path stroke="#fdc830" stroke-width="1" d="M273.942+398.606C289.377+391.063+281.589+399.988+292.885+401.229C304.503+402.504+315.869+397.363+327.423+399.414C332.681+400.347+339.508+406.289+345.109+404.651C366.267+398.464+388.497+400.443+408.609+404.042C409.012+404.115+415.485+401.141+416.878+400.679C417.073+400.614+438.43+400.594+439.551+400.689C445.508+401.194+452.402+399.733+457.603+400.557C462.073+401.266+463.411+405.116+468.198+404.26C471.287+403.708+474.284+398.882+478.009+399.705C482.195+400.63+484.623+403.452+488.328+403.815C498.091+404.77+509.19+401.32+518.669+401.511L518.975+402.888C509.742+403.131+499.16+406.044+489.231+406.922C484.694+407.323+480.748+401.644+477.304+402.124C472.066+402.856+470.211+408.399+464.266+407.333C461.327+406.806+460.138+404.045+457.603+403.057C454.348+401.789+449.877+405.194+446.222+405.261C431.87+405.525+420.447+403.246+409.334+407.505C406.788+408.48+404.067+404.861+403.51+404.971C393.373+406.973+389.954+405.471+381.371+402.186C376.618+400.367+350.22+406.21+344.841+407.597C338.639+409.197+332.881+403.757+327.209+402.631C317.441+400.692+308.2+405.157+298.574+404.491C286.177+403.634+285.985+396.284+275.519+401.084" fill="#fdc830" stroke-linecap="butt" opacity="1" stroke-linejoin="round"/>
<path stroke="#fdc830" stroke-width="1" d="M269.173+481.226C275.939+480.985+280.292+485.251+286.898+485.727C296.065+486.389+305.796+482.242+314.909+484.156C318.089+484.823+320.794+486.547+324.168+486.844C331.627+487.501+338.011+479.345+345.911+480.984C352.792+482.412+358.582+485.449+365.776+486.353C372.121+487.15+378.184+484.363+384.264+485.081C387.751+485.493+390.533+487.407+394.18+487.012C398.626+486.53+402.492+483.671+407.13+484.144C412.381+484.679+417.232+489.944+422.828+488.537C426.745+487.552+429.338+482.866+433.864+482.43C444.951+481.363+458.99+487.027+469.953+489.199C476.892+490.575+483.008+483.599+489.977+484.549C492.246+484.858+510.27+486.891+510.22+486.827L511.244+487.851C510.631+489.931+499.173+490.219+498.058+489.142C491.317+482.635+477.568+492.564+469.1+491.758C463.689+491.243+458.818+487.918+453.437+488.007C447.302+488.107+438.65+483.946+433.381+484.922C429.55+485.631+426.894+490.622+422.828+491.635C416.826+493.13+412.57+488.241+407.13+487.395C402.732+486.711+398.509+489.53+394.18+490.021C386.271+490.918+376.889+489.028+368.511+489.104C360.046+489.182+348.771+481.451+341.268+483.35C335.991+484.686+331.229+488.494+325.781+489.409C321.605+490.109+318.565+487.527+314.909+486.598C305.86+484.299+295.577+488.815+286.41+488.166C280.261+487.73+276.291+483.5+270.387+483.249" fill="#fdc830" stroke-linecap="butt" opacity="1" stroke-linejoin="round"/>
<path stroke="#fdc830" stroke-width="1" d="M272.416+562.761C285.246+559.311+295.348+569.737+307.725+565.784C324.651+560.378+339.747+565.076+357.283+566.183C369.325+566.942+380.156+562.933+391.865+562.704C405.43+562.439+419.083+563.417+432.672+563.159C440.729+563.006+448.502+565.492+456.47+565.976C467.167+566.626+477.557+563.825+488.378+564.805C493.085+565.231+503.023+567.994+506.762+566.384C508.715+565.543+516.362+565.146+515.652+565.444L517.245+567.037C514.063+572.2+456.44+568.597+448.801+567.867C430.965+566.163+402.567+563.258+385.637+566.239C375.661+567.996+367.057+569.734+356.785+569.171C344.011+568.47+331.207+564.586+318.229+565.35C311.795+565.728+306.05+570.298+299.178+568.424C289.908+565.897+283.186+562.613+273.14+564.933" fill="#fdc830" stroke-linecap="butt" opacity="1" stroke-linejoin="round"/>
</g>
</svg>
