<?xml version="1.0" encoding="UTF-8" standalone="no"?> <!-- Created with Vectornator for iOS (http://vectornator.io/) --><!DOCTYPE svg PUBLIC "-//W3C//DTD SVG 1.1//EN" "http://www.w3.org/Graphics/SVG/1.1/DTD/svg11.dtd">
<svg style="fill-rule:evenodd;clip-rule:evenodd;stroke-linecap:round;stroke-linejoin:round;" xmlns:vectornator="http://vectornator.io" xmlns:xlink="http://www.w3.org/1999/xlink" xmlns="http://www.w3.org/2000/svg" xml:space="preserve" version="1.1" viewBox="0 0 500 125">
<metadata>
<vectornator:setting key="DisplayWhiteBackground" value="0"/>
<vectornator:setting key="RulersVisible" value="1"/>
<vectornator:setting key="GridSpacing" value="36"/>
<vectornator:setting key="Units" value="Pixels"/>
<vectornator:setting key="DynamicGuides" value="1"/>
<vectornator:setting key="SnapToPoints" value="0"/>
<vectornator:setting key="CMYKEnabledKey" value="0"/>
<vectornator:setting key="SnapToGrid" value="0"/>
<vectornator:setting key="SnapToGuides" value="0"/>
<vectornator:setting key="IsolateActiveLayer" value="0"/>
<vectornator:setting key="SnapToEdges" value="1"/>
</metadata>
<defs/>
<g id="Layer 1" vectornator:layerName="Layer 1">
<path stroke="#fdc830" stroke-width="5" d="M15.62+11.6915C13.5739+37.8685+17.0682+62.5928+23.5464+87.9151C26.163+98.1426+29.1095+114.473+42.7418+113.683C49.8664+113.27+53.5121+100.386+55.8851+95.2398C64.9906+75.4918+68.4719+53.8845+71.7903+32.5395C72.538+27.7302+73.6891+22.691+72.2635+17.908C72.1322+17.4676+71.3752+14.0328+72.4383+14.0731C83.6036+14.4967+79.8224+29.8476+80.1231+38.7595C80.665+54.8159+81.4183+70.8247+84.9553+86.5809C87.3314+97.1657+94.1523+109.947+89.2201+120.768L87.3616+121.233C74.4877+112.755+74.1321+60.0134+73.8729+47.1897C73.7153+39.394+73.7172+31.5935+73.4691+23.7981C73.3797+20.9891+70.703+16.9178+73.0535+15.3771C75.1104+14.0288+78.9608+11.8403+80.2851+13.9128C84.4014+20.3544+80.1759+37.9674+79.3878+43.9907C76.5669+65.5488+72.9758+90.6283+60.5313+109.036C40.6111+138.503+21.49+112.552+15.6811+89.7559C12.9828+79.167+11.2634+69.0856+10.0312+58.2433C8.24743+42.5485+8.54874+27.0586+8.82893+11.2387" fill="#fdc830" stroke-linecap="butt" opacity="1" stroke-linejoin="round"/>
<path stroke="#fdc830" stroke-width="5" d="M112.553+14.1708C113.656+29.4759+112.893+44.1101+116.019+59.2129C117.527+66.4983+119.46+73.7938+122.137+80.7503C123.326+83.837+126.204+89.5011+127.807+92.1983C141.054+114.488+144.076+103.818+148.646+87.1557C154.015+67.5866+154.182+49.6178+154.88+29.5873C155.002+26.0709+154.364+7.6115+162.184+9.20032C172.044+11.2037+174.224+53.8141+175.282+62.4585C176.231+70.2135+176.798+78.5164+179.694+85.8692C181.595+90.6951+184.755+95.2487+187.498+99.6042C206.915+130.437+210.518+57.88+211.054+49.8055C211.451+43.8361+211.92+37.8712+212.448+31.9119C213.124+24.2706+211.552+21.8014+216.301+16.8518L221.949+17.9815C228.468+23.1983+224.086+42.5433+223.719+50.2276C222.931+66.736+222.131+118.93+196.714+119.577C168.972+120.283+161.485+62.3376+161.069+44.4226C160.904+37.3029+161.511+29.3786+160.331+22.371C160.066+20.7932+157.693+19.2433+158.571+17.9056C159.297+16.7996+160.897+19.8543+162.184+19.5477C164.38+19.0244+168.851+13.4841+167.355+15.1749C163.222+19.8468+166.85+37.2136+166.816+42.4507C166.684+62.6106+166.951+88.4394+154.69+105.542C142.478+122.577+127.257+110.225+119.19+96.5065C104.908+72.2165+101.933+42.1034+104.018+14.5772" fill="#fdc830" stroke-linecap="butt" opacity="1" stroke-linejoin="round"/>
<path stroke="#fdc830" stroke-width="5" d="M283.89+20.6967C283.092+23.83+277.246+31.4138+276.362+33.483C269.814+48.7999+263.801+80.8289+275.972+95.0457C281.465+101.462+296.466+112.959+305.073+105.527C308.142+102.878+309.835+97.8232+312.81+94.8828C315.099+92.6207+324.808+89.1127+323.853+84.6205L324.775+84.3572C335.693+100.487+304.28+123.988+286.794+117.535C252.474+104.87+257.132+62.0638+265.804+34.6259C269.114+24.1512+273.011+14.1885+283.89+10.0575" fill="#fdc830" stroke-linecap="butt" opacity="1" stroke-linejoin="round"/>
<path stroke="#fdc830" stroke-width="5" d="M317.195+110.361C317.28+99.0506+316.275+85.6372+317.591+74.0569C317.928+71.0897+319.182+62.5932+316.975+62.9092C316.867+62.9247+315.139+56.2419+315.817+59.2783C316.27+61.3062+316.863+63.3004+317.421+65.3022C317.479+65.5111+316.657+64.8956+316.835+65.0184C318.387+66.0835+320.544+66.3919+321.706+67.8722C323.145+69.7056+317.188+66.6704+314.875+66.3782C309.626+65.7148+296.894+65.921+289.992+66.0327C289.407+66.0422+288.13+66.6429+288.237+66.0674C289.074+61.5387+287.552+52.4368+292.142+52.8143L291.287+59.6569C286.472+59.769+288.287+50.3502+288.237+45.5345C288.236+45.4799+291.488+45.5673+291.698+45.5692C294.712+45.5968+297.643+45.7497+300.671+45.7635C306.735+45.7909+327.937+49.5461+329.506+52.7827C333.901+61.8505+330.084+95.0228+328.825+110.776" fill="#fdc830" stroke-linecap="butt" opacity="1" stroke-linejoin="round"/>
<path stroke="#fdc830" stroke-width="5" d="M350.59+118.629C348.846+95.3489+336.456+49.8185+345.755+28.7011C359.599-2.73921+399.645+0.0609012+412.449+30.2164C423.904+57.1967+381.523+82.6821+358.887+72.3019L360.157+61.5065C359.689+62.6791+359.69+62.5961+363.376+60.3492C365.538+59.0313+367.399+57.2654+369.523+55.8885C372.673+53.8473+375.925+51.9669+379.183+50.1043C380.634+49.2753+396.997+43.8081+397.428+40.6145C398.577+32.0987+382.858+22.5772+380.553+23.0205C350.692+28.762+362.481+73.9394+364.546+94.6804C365.342+102.674+363.835+110.657+363.238+118.629" fill="#fdc830" stroke-linecap="butt" opacity="1" stroke-linejoin="round"/>
<path stroke="#fdc830" stroke-width="5" d="M419.839+112.76C424.148+99.5963+430.566+87.1169+435.779+74.3212C441.412+60.4948+443.352+45.7178+449.834+31.8277C450.841+29.6677+455.934+9.66897+458.799+10.1453C470.626+12.1111+473.434+35.1853+475.873+44.4948C481.596+66.3378+484.424+89.0854+489.551+111.042C490.816+116.462+490.575+127.602+491.384+129.264L487.383+131.265C481.256+127.824+481.051+113.314+479.4+106.727C473.34+82.5357+469.899+57.9165+465.026+33.427C464.715+31.8652+459.186+17.0737+459.731+16.3259C470.134+2.03859+452.397+49.7644+452.07+51.1049C449.904+59.9718+446.822+68.7915+443.608+77.4528C438.785+90.4511+432.6+102.886+427.672+115.893" fill="#fdc830" stroke-linecap="butt" opacity="1" stroke-linejoin="round"/>
<path stroke="#fdc830" stroke-width="5" d="M414.377+59.5069C431.727+57.4605+451.197+53.8119+468.092+48.6024C473.652+46.8881+482.075+42.2437+488.198+43.8205L488.198+59.1712C468.725+64.1857+438.781+68.5194+416.7+68.7985" fill="#fdc830" stroke-linecap="butt" opacity="1" stroke-linejoin="round"/>
<path stroke="#fdc830" stroke-width="2" d="M77.5263+29.9599C77.3159+33.1161+77.2066+36.2806+76.8949+39.4284C76.5854+42.5534+76.0543+45.6525+75.6635+48.7684C73.4945+66.0631+73.899+39.6237+74.2057+36.608C74.6292+32.4453+75.1188+28.2874+75.7383+24.1493C75.9553+22.6992+75.4814+19.9715+76.9467+19.9199C81.0593+19.775+79.1056+24.5407+78.9615+26.7779C78.7746+29.6808+78.5401+32.5812+78.2482+35.4754C77.3237+44.6412+75.9094+53.7439+74.9372+62.9042C74.7295+64.8614+75.8961+67.5441+74.3651+68.7809C73.8392+69.2056+71.7149+65.9041+71.585+61.6933C71.5055+59.1186+71.5016+56.5419+71.5012+53.966C71.5+44.6349+72.1652+36.2599+74.2498+27.1314C74.7199+25.0731+75.5818+23.1152+76.0213+21.0501C76.0364+20.9794+75.9485+20.7758+75.9888+20.8358C82.4148+30.3936+73.1993+55.018+73.8847+67.4223C73.9484+68.5742+71.7492+66.1976+71.2792+65.144C70.6478+63.7284+70.977+62.0563+70.9284+60.507C70.8375+57.6069+70.86+54.7042+70.861+51.8027C70.8636+44.5291+71.544+37.4339+73.7991+30.4678C74.3695+28.7059+74.2411+24.6143+75.9438+25.3426C80.3621+27.2324+78.1848+39.5506+78.158+42.9591C78.1254+47.1079+78.0525+51.2563+78.0104+55.405C77.9859+57.8174+77.9599+60.2298+77.9583+62.6422C77.9577+63.6019+77.9692+64.5619+78.0038+65.5209C78.0177+65.9066+78.0067+67.048+78.1039+66.6745C78.7549+64.1727+76.2633+66.2706+75.2211+63.9759C74.2872+61.9198+74.5389+59.5098+74.2952+57.2647C73.3551+48.6062+74.1055+39.8703+75.3026+31.2731C75.6003+29.135+74.7359+26.0797+76.5563+24.9195C78.9773+23.3764+78.9921+30.2482+79.2198+33.1101C80.041+43.4294+78.1138+54.3488+77.1683+64.652C77.0417+66.0312+78.1786+68.7504+76.7941+68.7902C72.1287+68.9244+72.7705+58.0619+72.4106+55.2944C71.6264+49.2644+69.37+31.7271+74.0853+27.0813C75.146+26.0361+76.344+29.3182+76.5776+30.789C77.1364+34.3055+76.8464+37.9055+76.9271+41.4653C77.1313+50.482+76.9998+60.04+75.5381+68.944C75.3456+70.117+73.197+67.7766+72.8037+66.6548C72.1527+64.7975+72.4427+62.7344+72.3275+60.7696C72.2071+58.7158+72.1361+56.6589+72.0971+54.6019C71.9378+46.1855+72.0635+34.1457+76.699+26.5342C76.8024+26.3645+77.1925+26.5928+77.2394+26.7859C77.9513+29.7172+78.7737+32.6651+78.9199+35.6781C79.2463+42.4048+77.1063+49.0266+76.002+55.6701C75.713+57.4083+75.8049+61.6351+75.3346+61.0609L73.7801+61.7518C71.8421+60.6766+76.4734+40.3752+77.188+35.7717C77.6374+32.8761+79.6997+24.4235+78.4442+27.0712C74.6185+35.1394+74.1718+45.8045+74.3651+54.4658C74.4669+59.027+76.9174+65.3474+73.0303+68.5456C71.8729+69.4978+73.6137+63.746+73.9354+60.9969C74.3874+57.1328+74.83+53.2615+75.0109+49.3753C75.2957+43.2592+73.9483+37.116+74.4662+31.0152C74.5655+29.8458+77.0825+28.7831+76.2352+27.9709C75.4048+27.1749+74.9965+29.9636+74.7549+31.0882C74.1656+33.8307+73.5745+36.5935+73.3952+39.3928C73.0668+44.5212+77.692+66.4091+74.2498+68.4909C73.0794+69.1987+74.7058+65.7914+74.8402+64.4303C75.0657+62.1452+75.2173+59.853+75.4555+57.5692C76.298+49.4915+76.5183+41.3312+77.3703+33.2757C77.9296+27.9876+79.1519+25.5429+78.587+25.31C78.1351+25.1237+78.2151+26.2212+78.1252+26.7015C77.8282+28.2888+77.639+29.8945+77.4293+31.4956C76.3269+39.9142+75.715+48.4089+76.7487+56.8669C77.0264+59.1388+77.9481+61.3792+77.7519+63.6596C77.6442+64.9112+76.1147+67.891+75.5926+66.7483C74.0136+63.2926+75.538+59.1471+75.686+55.3506C75.9609+48.2991+74.0876+32.5943+77.7526+26.0926C77.8808+25.865+77.419+26.5041+77.3198+26.7457C76.7652+28.0967+76.2366+29.4612+75.7979+30.8541C75.3457+32.2899+74.9305+33.7427+74.6503+35.2217C73.0119+43.8666+73.0077+51.6317+73.3636+60.3765C73.4609+62.7685+72.9815+65.708+71.1044+67.1937C71.0967+67.1997+71.1303+67.216+71.1307+67.2063C71.4459+58.3748+73.5832+49.0288+74.5527+40.339C74.8652+37.5378+75.0566+34.7244+75.2845+31.9151C75.5776+28.3022+75.6259+23.9983+78.1899+21.4361C78.9393+20.6871+76.7554+25.3438+76.3118+27.4385C75.6422+30.6002+75.0334+33.7781+74.578+36.9776C73.4179+45.1282+73.9467+53.4065+74.1538+61.6016C74.2859+66.8269+75.7859+66.4161+72.0299+68.6155C70.2872+69.636+71.9654+64.5605+72.2485+62.561C73.0477+56.9155+73.8101+51.2643+74.4894+45.6032C75.134+40.2314+73.6238+23.8528+79.4022+20.664C80.5455+20.033+78.3865+23.0998+78.1993+24.3922C77.6043+28.5004+77.2334+32.6386+76.8382+36.7709C76.4493+40.8366+77.9737+52.8311+74.1957+55.7206C72.563+56.9694+72.8607+51.7043+73.064+49.6589C73.4109+46.1692+74.1675+42.7317+74.6313+39.2556C75.0457+36.1498+75.3356+33.0286+75.6878+29.9151" fill="#fdc830" stroke-linecap="butt" opacity="1" stroke-linejoin="round"/>
<path stroke="#fdc830" stroke-width="2" d="M160.055+28.488C163.364+41.7825+164.531+51.982+164.844+65.4467C164.92+68.7077+164.863+72.5576+164.815+72.5322C157.854+68.8775+159.39+38.806+160.001+31.2756C160.206+28.7427+160.672+26.2359+161.125+23.7355C161.389+22.284+161.73+18.2268+162.452+19.5132C165.743+25.376+165.791+32.678+165.815+39.4015C165.832+43.941+165.792+48.4822+165.633+53.019C165.508+56.5729+165.171+60.1164+164.963+63.6664C164.787+66.6685+167.039+74.3897+164.565+72.6793C163.025+71.614+160.944+71.0227+159.999+69.406C158.689+67.1667+158.633+64.391+158.221+61.8299C157.459+57.0888+154.982+35.9554+158.769+32.5031C159.93+31.4446+161.756+34.1524+162.298+35.6269C163.891+39.9556+164.443+44.6261+164.917+49.2141C165.626+56.0873+165.017+63.0338+164.954+69.9433C164.939+71.6301+166.133+75.944+164.735+74.9992C156.701+69.567+159.998+35.625+162.477+26.9088C162.886+25.4714+163.168+23.6454+164.455+22.8852C165.176+22.4593+165.94+23.9274+166.152+24.7375C167.098+28.345+167.634+32.0739+167.84+35.7976C168.317+44.4162+166.928+53.0146+166.537+61.6008L165.012+61.5345C164.472+57.302+164.877+52.9913+165.181+48.7354C165.483+44.5087+165.618+40.2709+165.939+36.0456C166.186+32.7884+166.873+29.5581+166.883+26.2916C166.887+25.2536+166.972+23.0106+165.979+23.312C164.483+23.7659+162.418+34.9205+162.204+37.0177C161.456+44.3348+166.063+71.5161+161.982+74.8972C160.703+75.9565+162.052+71.5762+162.135+69.9177C162.273+67.1475+162.431+64.3774+162.488+61.6045C162.652+53.5054+164.456+45.3944+163.675+37.3314C163.5+35.5234+162.388+31.6287+160.886+32.6499C156.887+35.368+160.974+56.8123+161.806+60.9337C162.297+63.3705+163.54+65.7446+163.373+68.2249C163.269+69.783+161.074+73.9718+161.302+72.4269C163.844+55.2149+160.606+36.9883+165.008+20.3654C165.333+19.14+163.964+22.7019+163.733+23.9484C163.283+26.377+162.83+28.8139+162.628+31.2756C162.336+34.8292+162.247+38.4001+162.252+41.9656C162.26+48.0918+166.879+70.0571+161.902+72.5322C160.999+72.9815+162.091+71.9609+162.244+65.4939C162.324+62.1171+162.291+58.7384+162.287+55.3606C162.277+46.3941+161.693+37.4339+161.086+28.488" fill="#fdc830" stroke-linecap="butt" opacity="1" stroke-linejoin="round"/>
<path stroke="#fdc830" stroke-width="2" d="M77.0616+17.8171C76.9648+22.0047+75.6732+26.3535+76.824+30.381C76.9427+30.7961+77.7353+29.8268+77.6699+29.4C77.4652+28.0638+76.4706+26.8425+76.5762+25.4949C76.8221+22.3544+77.3499+19.2298+77.3922+16.08C77.3946+15.9048+76.9048+15.6312+76.9466+15.8013C78.1973+20.8928+74.166+26.1266+75.8678+31.1507C75.9473+31.3853+76.2783+31.6112+76.5103+31.5242C77.05+31.322+76.3845+30.3766+76.3743+29.8003C76.3274+27.1356+78.2875+23.5471+77.5542+21.0104C77.34+20.2694+76.2059+19.0408+75.7015+19.6242C75.6684+19.6624+77.073+33.561+77.388+33.757C78.9367+34.721+77.9783+30.1198+77.8262+28.3019C77.6653+26.3782+78.574+21.0976+77.5414+19.3814C76.9674+18.4273+77.567+21.6107+77.4861+22.7213C77.2212+26.3578+75.2741+30.5928+75.9049+34.2549C75.9484+34.507+76.2587+34.7982+76.5058+34.7322C77.0994+34.5736+76.3268+33.4989+76.4169+32.8911C76.961+29.2199+77.1137+25.7903+77.1603+21.9879C77.1831+20.1377+77.0386+14.8587+76.218+16.5173C75.5587+17.8497+77.0676+19.4106+77.0582+20.8972C77.0371+24.2235+76.0628+27.5149+76.1939+30.8386C76.2382+31.9618+77.4638+35.0792+77.4818+33.9552C77.5388+30.3984+77.344+26.7945+77.6786+23.0466C77.7757+21.9593+78.0332+19.0183+77.2686+19.7974C76.6661+20.4112+74.7095+34.7946+76.6481+34.7373C79.4533+34.6544+79.4982+18.0856+79.2864+16.97C79.2327+16.687+79.0371+16.3323+78.752+16.2907C78.3948+16.2387+79.0066+17.0035+78.9373+17.3578C78.6584+18.7835+77.7142+20.0258+77.4499+21.4543C77.0114+23.8231+76.6671+26.2101+76.3832+28.6024C76.3036+29.2726+75.4081+34.6977+76.9321+35.7225C77.0264+35.7859+76.3451+32.9243+76.3317+32.492C76.2842+30.9616+76.3349+29.4295+76.3064+27.8986C76.2699+25.9368+76.3701+23.9747+76.4028+22.0128C76.427+20.5566+75.8939+16.2536+75.7124+17.6986C75.5156+19.2652+76.8527+20.7032+76.9114+22.281C77.0299+25.4622+75.7503+28.5564+75.5477+31.7334C75.5003+32.4759+76.5334+34.5245+76.4152+33.79C75.8763+30.4412+76.8772+27.2051+77.0837+23.628C77.2006+21.6012+77.5574+19.5653+77.3668+17.5441C77.3496+17.3609+76.795+17.1337+76.8711+17.3013C77.2388+18.1119+78.3285+18.6779+78.2846+19.5669C78.1436+22.419+70.487+35.2023+74.7201+37.4346C75.5505+37.8725+76.0654+33.5745+76.0677+33.5527C76.4813+29.6082+77.7935+20.7897+75.4761+17.3928C75.3339+17.1844+75.4753+22.2712+75.3361+23.5543C74.8715+27.8389+73.9184+34.9293+76.111+35.1893C76.64+35.2521+75.2137+34.4507+75.1349+33.9238C74.9399+32.6197+75.3722+31.2961+75.4205+29.9784C75.5481+26.4973+75.3327+24.9309+75.5512+21.576C75.6341+20.3039+74.7732+17.234+75.9297+17.7704C81.0703+20.1544+76.036+29.4767+76.0281+34.6112L74.5049+34.7331C73.2281+32.1995+74.0086+18.7186+75.5547+17.9387C76.4903+17.4668+77.6563+17.9993+78.6895+18.1742C79.8548+18.3715+78.1313+20.4778+78.002+21.6526C77.8609+22.9349+77.8089+24.2258+77.749+25.5144C77.6293+28.0886+77.8077+32.1916+76.8194+34.7099C74.6357+40.2741+72.7292+30.7775+72.7065+30.2375C72.6033+27.7845+72.585+25.3241+72.7097+22.8721C72.9122+18.8927+72.9624+17.3987+76.0875+14.6457C76.3549+14.4101+77.769+15.6491+77.8091+15.6966C79.3886+17.5656+79.1896+19.925+79.3111+22.2184C79.553+26.7839+80.8366+37.9408+73.9561+38.5731C71.3804+38.8099+71.2826+34.4195+71.419+33.0586C71.8779+28.4779+72.8391+15.0129+79.8801+17.2221C80.1917+17.3199+79.5039+23.8747+79.4898+24.042C79.3124+26.1464+79.2031+35.1804+75.3615+34.8437C71.2337+34.4819+75.4907+18.5453+77.468+16.4467C77.783+16.1124+78.4033+16.6787+78.7292+17.0024C80.0199+18.2846+79.3982+22.6589+79.331+24.2225C79.189+27.5232+80.65+36.1784+75.8239+36.8685C73.0707+37.2622+73.9529+28.3423+73.9722+28.1282C74.3442+24.0037+73.9582+16.3003+79.235+14.6783C81.5022+13.9815+81.5217+18.8657+81.5045+19.4366C81.3901+23.2417+82.3006+34.5117+76.5611+35.7503C70.9438+36.9625+73.0599+19.0533+78.2267+18.4626C85.3486+17.6483+75.3137+45.7221+73.9839+30.6888C73.8443+29.1105+73.8571+27.5182+73.9371+25.9359C74.043+23.8391+73.9551+21.6826+74.5408+19.6665C75.0262+17.9957+75.6986+16.1616+77.083+15.1078C79.6345+13.1657+80.3034+18.1373+80.1237+22.3066C80.0076+24.9999+79.0643+34.4242+75.8747+35.6338C71.3372+37.3546+74.2129+19.5323+77.395+17.5941C81.9424+14.8242+83.2856+35.9686+76.762+35.024C72.4849+34.4047+73.9508+17.5551+78.3848+18.9853C82.1288+20.193+79.4466+31.9498+75.8612+32.6151C72.1581+33.3022+72.349+15.3947+79.4492+15.8795C81.3698+16.0107+79.3575+19.7322+79.1692+21.648C79.1009+22.3431+79.1581+27.6351+78.2292+28.8273C75.7557+32.0019+73.3227+29.3087+74.3843+25.9034C75.2475+23.1346+77.2105+20.8379+78.6236+18.3052" fill="#fdc830" stroke-linecap="butt" opacity="1" stroke-linejoin="round"/>
<path stroke="#fdc830" stroke-width="2" d="M284.709+22.0423C284.673+22.4812+285.365+23.491+284.951+23.3409C284.17+23.0581+283.018+23.1898+282.621+22.461C282.194+21.6773+283.333+20.5591+283.398+19.6562C283.634+16.3773+282.845+14.9894+283.248+12.4458C283.271+12.3008+283.316+12.1422+283.262+12.0056C283.246+11.9645+283.169+12.0623+283.176+12.106C283.223+12.4204+283.642+13.2541+283.419+13.0283C283.006+12.6126+281.899+11.253+282.226+11.7386C282.52+12.174+283.957+12.8439+283.697+12.91C283.517+12.9557+282.983+12.9098+283.147+12.8224C283.701+12.5266+284.303+12.3288+284.887+12.0949C285.363+11.9042+283.721+12.4392+283.348+12.0864L280.744+11.0444C279.117+8.31052+283.16+6.48322+285.417+7.46566C287.421+8.33825+287.348+9.47432+287.903+10.8971C289.034+13.7965+288.251+17.6007+286.71+20.4542C285.757+22.2185+281.715+23.4572+284.446+21.7791" fill="#fdc830" stroke-linecap="butt" opacity="1" stroke-linejoin="round"/>
<path stroke="#fdc830" stroke-width="2" d="M282.074+13.2446C279.769+15.5702+278.668+19.4268+275.114+15.8576C274.317+15.0577+277.237+12.5344+277.446+11.665C277.8+10.198+279.169+10.0477+280.175+9.03393C280.391+8.81651+281.075+8.2146+280.894+8.46195C279.492+10.3814+278.769+10.1492+281.716+12.0664C281.983+12.2403+282.85+11.5901+282.644+11.8331C281.161+13.5778+278.356+15.9733+278.216+16.4227C277.969+17.2219+277.2+19.0047+276.644+18.3794C275.682+17.2972+274.571+16.3503+273.636+15.2451C273.479+15.0605+276.051+12.5949+276.231+12.1338C276.567+11.2779+278.168+10.3703+278.726+10.447C279.153+10.5056+279.588+10.4814+280.018+10.4986C280.018+10.4986+278.741+11.137+280.184+11.8094C281.601+12.4697+280.627+14.6488+279.919+14.1887C279.885+14.1668+277.063+17.8093+277.03+17.7907C275.83+17.1339+272.588+16.568+273.559+15.6051C274.47+14.7007+282.243+5.20706+283.93+10.0246C284.449+11.5068+279.905+13.2372+282.096+11.8206C282.54+11.5334+281.368+13.6959+281.27+13.1761C281.184+12.7192+279.765+16.0952+279.293+15.8576C276.998+14.7016+276.465+12.9806+275.869+15.076C275.684+15.7284+276.746+14.04+277.161+13.5035" fill="#fdc830" stroke-linecap="butt" opacity="1" stroke-linejoin="round"/>
<path stroke="#fdc830" stroke-width="2" d="M283.323+20.604C284.895+19.0208+283.981+18.8597+284.989+17.9203L286.807+19.7379C287.1+19.0218+286.177+20.6776+284.951+22.557" fill="#fdc830" stroke-linecap="butt" opacity="1" stroke-linejoin="round"/>
</g>
</svg>
